<svg xmlns="http://www.w3.org/2000/svg" viewBox="0 0 216 36"><path d="M27.5 1.4v12.4H10.7V1.4H4.2v33.3h6.5V20.6h16.8v14.1H34V1.4h-6.5zm40.1 0v17.4c0 5-.5 10.4-8.8 10.4s-8.9-5.2-8.9-10.4V1.4h-6.5v17.8c0 7.9 2.2 16.4 15.3 16.4C71.8 35.6 74 27 74 19.2V1.4h-6.4zm54.2 0v33.3h22.5V28h-15.9V1.4h-6.6zm42.3-1c-10 0-17.8 7.7-17.8 17.5s7.8 17.5 17.8 17.5 17.8-7.7 17.8-17.5S174.1.4 164.1.4zm0 28.6c-6.3 0-11.3-4.9-11.3-11.1 0-6.2 5-11.1 11.3-11.1s11.3 4.9 11.3 11.1c0 6.2-5 11.1-11.3 11.1zm20.5-27.6v6.8h10.5v26.5h6.5V8.2h10.2V1.4h-27.2zm-76.4 15.8c2-1.6 3.2-3.9 3.2-6.6 0-2.8-1.1-9.2-11.5-9.2H82.8v33.3H101c7.3 0 11.5-3.7 11.5-10.1 0-3.2-1.5-5.7-4.3-7.4zm-8.6-9.7c3.6 0 4.7 1.3 4.7 3.5s-1 3.8-4.6 3.8H89.3V7.5h10.3zm1 21.1H89.3v-8.4h11.3c3.4 0 4.8 1.3 4.8 4.3.1 2.3-.8 4.1-4.8 4.1z" fill="#181716"/></svg>