<svg xmlns="http://www.w3.org/2000/svg" viewBox="0 0 99.1 12.89"><path d="M42.78 8.39h6.55L45.87 2.8l-6.35 10.09h-2.9L44.35.79A1.83 1.83 0 0145.87 0a1.81 1.81 0 011.49.77l7.75 12.12h-2.89l-1.36-2.26h-6.63l-1.45-2.24m30 2.24V.12h-2.42v11.55a1.18 1.18 0 00.37.84 1.23 1.23 0 00.89.38H82.8l1.46-2.26H72.82m-40.6-1.88a4.32 4.32 0 000-8.63H21.48v12.77h2.46V2.38h8.12a2.07 2.07 0 010 4.13h-6.92l7.33 6.39H36l-4.89-4.15h1.11M6.38 12.89h7.42a6.39 6.39 0 000-12.77H6.38a6.39 6.39 0 000 12.77m7.25-2.25H6.55a4.13 4.13 0 010-8.26h7.08a4.13 4.13 0 110 8.26m46.61 2.25h7.57l1.44-2.25h-8.84a4.13 4.13 0 110-8.26h7.19L69.05.12h-8.81a6.39 6.39 0 100 12.77m30-2.25a4.15 4.15 0 01-4-3h10.52l1.45-2.25H86.27a4.14 4.14 0 014-3h7.2L98.89.12h-8.8a6.39 6.39 0 000 12.77h7.57l1.44-2.25h-8.85" fill="#c74634"/></svg>